<?xml version="1.0" encoding="UTF-8" standalone="no"?>
<svg
   inkscape:export-ydpi="576"
   inkscape:export-xdpi="576"
   inkscape:export-filename="/media/taufikramadhan/Data/Tr Design Studio/Project Design/TR Creative Design/Icon Design/Project Hiring/Icon Icons/020 - Kids/Team/Adnan/Project juni_FILES (2)/Project juni #1/export/line/svg/6. rocking horse"
   width="64pt"
   height="64pt"
   viewBox="0 0 22.577778 22.577778"
   version="1.1"
   id="svg831"
   inkscape:version="1.1.2 (1:1.1+202202050950+0a00cf5339)"
   sodipodi:docname="6. rocking horse.svg"
   xmlns:inkscape="http://www.inkscape.org/namespaces/inkscape"
   xmlns:sodipodi="http://sodipodi.sourceforge.net/DTD/sodipodi-0.dtd"
   xmlns="http://www.w3.org/2000/svg"
   xmlns:svg="http://www.w3.org/2000/svg"
   xmlns:rdf="http://www.w3.org/1999/02/22-rdf-syntax-ns#"
   xmlns:cc="http://creativecommons.org/ns#"
   xmlns:dc="http://purl.org/dc/elements/1.1/">
  <defs
     id="defs825">
    <pattern
       id="EMFhbasepattern"
       patternUnits="userSpaceOnUse"
       width="6"
       height="6"
       x="0"
       y="0" />
    <pattern
       id="EMFhbasepattern-9"
       patternUnits="userSpaceOnUse"
       width="6"
       height="6"
       x="0"
       y="0" />
    <pattern
       id="EMFhbasepattern-0"
       patternUnits="userSpaceOnUse"
       width="6"
       height="6"
       x="0"
       y="0" />
    <pattern
       id="EMFhbasepattern-7"
       patternUnits="userSpaceOnUse"
       width="6"
       height="6"
       x="0"
       y="0" />
    <pattern
       id="EMFhbasepattern-2"
       patternUnits="userSpaceOnUse"
       width="6"
       height="6"
       x="0"
       y="0" />
    <pattern
       id="EMFhbasepattern-98"
       patternUnits="userSpaceOnUse"
       width="6"
       height="6"
       x="0"
       y="0" />
    <pattern
       id="EMFhbasepattern-6"
       patternUnits="userSpaceOnUse"
       width="6"
       height="6"
       x="0"
       y="0" />
    <pattern
       id="EMFhbasepattern-01"
       patternUnits="userSpaceOnUse"
       width="6"
       height="6"
       x="0"
       y="0" />
    <pattern
       id="EMFhbasepattern-07"
       patternUnits="userSpaceOnUse"
       width="6"
       height="6"
       x="0"
       y="0" />
    <pattern
       id="EMFhbasepattern-8"
       patternUnits="userSpaceOnUse"
       width="6"
       height="6"
       x="0"
       y="0" />
    <pattern
       id="EMFhbasepattern-4"
       patternUnits="userSpaceOnUse"
       width="6"
       height="6"
       x="0"
       y="0" />
    <pattern
       id="EMFhbasepattern-40"
       patternUnits="userSpaceOnUse"
       width="6"
       height="6"
       x="0"
       y="0" />
    <pattern
       id="EMFhbasepattern-08"
       patternUnits="userSpaceOnUse"
       width="6"
       height="6"
       x="0"
       y="0" />
    <pattern
       id="EMFhbasepattern-04"
       patternUnits="userSpaceOnUse"
       width="6"
       height="6"
       x="0"
       y="0" />
    <pattern
       id="EMFhbasepattern-014"
       patternUnits="userSpaceOnUse"
       width="6"
       height="6"
       x="0"
       y="0" />
    <pattern
       id="EMFhbasepattern-27"
       patternUnits="userSpaceOnUse"
       width="6"
       height="6"
       x="0"
       y="0" />
    <pattern
       id="EMFhbasepattern-09"
       patternUnits="userSpaceOnUse"
       width="6"
       height="6"
       x="0"
       y="0" />
    <pattern
       id="EMFhbasepattern-5"
       patternUnits="userSpaceOnUse"
       width="6"
       height="6"
       x="0"
       y="0" />
    <pattern
       id="EMFhbasepattern-018"
       patternUnits="userSpaceOnUse"
       width="6"
       height="6"
       x="0"
       y="0" />
  </defs>
  <sodipodi:namedview
     inkscape:lockguides="true"
     id="base"
     pagecolor="#ffffff"
     bordercolor="#666666"
     borderopacity="1.0"
     inkscape:pageopacity="0.0"
     inkscape:pageshadow="2"
     inkscape:zoom="4.9539927"
     inkscape:cx="46.124412"
     inkscape:cy="52.684777"
     inkscape:document-units="pt"
     inkscape:current-layer="layer1"
     showgrid="false"
     units="pt"
     inkscape:window-width="1366"
     inkscape:window-height="705"
     inkscape:window-x="0"
     inkscape:window-y="31"
     inkscape:window-maximized="1"
     inkscape:pagecheckerboard="true"
     inkscape:showpageshadow="false"
     inkscape:object-paths="true"
     inkscape:snap-intersection-paths="true"
     inkscape:snap-smooth-nodes="true"
     inkscape:snap-midpoints="true"
     showguides="true"
     inkscape:snap-bbox="true"
     inkscape:bbox-nodes="true"
     inkscape:snap-nodes="false"
     inkscape:snap-global="true"
     inkscape:document-rotation="0">
    <inkscape:grid
       type="xygrid"
       id="grid1378" />
    <sodipodi:guide
       position="0.97013831,21.607643"
       orientation="78.000048,0"
       id="guide1380"
       inkscape:locked="true" />
    <sodipodi:guide
       position="0.97013831,0.97013129"
       orientation="0,78.000005"
       id="guide1382"
       inkscape:locked="true" />
    <sodipodi:guide
       position="21.607639,0.97013129"
       orientation="-78.000048,0"
       id="guide1384"
       inkscape:locked="true" />
    <sodipodi:guide
       position="21.607639,21.607643"
       orientation="0,-78.000005"
       id="guide1386"
       inkscape:locked="true" />
  </sodipodi:namedview>
  <metadata
     id="metadata828">
    <rdf:RDF>
      <cc:Work
         rdf:about="">
        <dc:format>image/svg+xml</dc:format>
        <dc:type
           rdf:resource="http://purl.org/dc/dcmitype/StillImage" />
      </cc:Work>
    </rdf:RDF>
  </metadata>
  <g
     inkscape:label="Icon"
     inkscape:groupmode="layer"
     id="layer1"
     transform="translate(0,-274.42223)">
    <path
       id="path286"
       style="color:#717171;font-style:normal;font-variant:normal;font-weight:normal;font-stretch:normal;font-size:medium;line-height:normal;font-family:sans-serif;font-variant-ligatures:normal;font-variant-position:normal;font-variant-caps:normal;font-variant-numeric:normal;font-variant-alternates:normal;font-variant-east-asian:normal;font-feature-settings:normal;font-variation-settings:normal;text-indent:0;text-align:start;text-decoration:none;text-decoration-line:none;text-decoration-style:solid;text-decoration-color:#717171;letter-spacing:normal;word-spacing:normal;text-transform:none;writing-mode:lr-tb;direction:ltr;text-orientation:mixed;dominant-baseline:auto;baseline-shift:baseline;text-anchor:start;white-space:normal;shape-padding:0;shape-margin:0;inline-size:0;clip-rule:nonzero;display:inline;overflow:visible;visibility:visible;isolation:auto;mix-blend-mode:normal;color-interpolation:sRGB;color-interpolation-filters:linearRGB;solid-color:#717171;solid-opacity:1;vector-effect:none;fill:#717171;fill-opacity:1;fill-rule:nonzero;stroke:none;stroke-width:0.529168;stroke-linecap:round;stroke-linejoin:round;stroke-miterlimit:4;stroke-dasharray:none;stroke-dashoffset:0;stroke-opacity:1;color-rendering:auto;image-rendering:auto;shape-rendering:auto;text-rendering:auto;enable-background:accumulate;stop-color:#717171"
       d="m 14.988365,276.76176 c -0.538239,-0.0126 -1.084479,0.0938 -1.659164,0.33718 -0.991378,0.48151 -1.643567,1.44486 -1.735471,2.53244 -0.164423,0.9667 0.217715,1.8784 0.623491,2.73593 0.342238,0.72324 0.700397,1.42226 0.847191,2.07134 H 9.0228074 c -0.4695882,0 -0.9209843,0.0982 -1.3337226,0.27457 l -0.4813121,-0.46175 c -0.5389866,-0.51723 -1.3108757,-0.73296 -2.1117824,-0.56609 -0.7041468,0.1467 -1.274405,0.515 -1.6409021,1.03437 -0.4853824,0.59882 -0.9146297,0.82131 -1.6161218,1.09437 -0.255422,0.1002 -0.2875017,0.44875 -0.054782,0.59414 0.7170996,0.4482 1.3227633,0.60445 1.8443861,0.56675 0.5216196,-0.0377 0.9311455,-0.2638 1.2652424,-0.48654 0.3341001,-0.22275 0.6088894,-0.43835 0.8465401,-0.52696 0.1540372,-0.0574 0.2921264,-0.0747 0.4643556,-0.0274 -0.2119021,0.31223 -0.3747215,0.66322 -0.4747906,1.0435 l -1.0069786,3.82703 c -0.7068916,-0.2446 -1.4123607,-0.52607 -2.1163472,-0.84197 -0.8370268,-0.21959 -1.62590241,0.2861 -1.62590241,0.96002 -0.0899217,0.66559 0.42350781,1.33854 1.41720251,1.6996 5.7330161,2.56542 11.6852097,2.87349 17.8223197,-0.015 1.002624,-0.46541 1.470099,-1.18432 1.375462,-1.83461 -0.132215,-0.77949 -0.756972,-1.14351 -1.635034,-0.80741 -0.509696,0.23982 -1.016616,0.44903 -1.522204,0.64437 -0.03916,-0.3572 -0.08508,-0.65261 -0.175439,-1.1159 -0.09651,-0.49479 -0.395831,-0.95634 -0.759146,-1.35785 -0.303016,-0.33489 -0.660194,-0.58408 -1.012846,-0.79371 0.336725,-1.69821 0.281241,-2.71343 0.0098,-4.144 0.269641,0.1815 0.475326,0.35743 0.82893,0.49696 0.308716,0.12179 0.647651,0.2025 1.000454,0.16957 0.352803,-0.0329 0.713659,-0.18963 1.024587,-0.50153 0.322075,-0.37794 0.287131,-0.885 0.101091,-1.31806 -0.186055,-0.43308 -0.518038,-0.85478 -0.920892,-1.23069 -0.386892,-0.36101 -0.839518,-0.67487 -1.307634,-0.88762 l 0.603925,-1.81047 c 0.04875,-0.14463 -0.0071,-0.30439 -0.135004,-0.3874 -0.745005,-0.47903 -1.457824,-0.79721 -2.171781,-0.91568 -0.17849,-0.0297 -0.356687,-0.0475 -0.536098,-0.0515 z m -0.06652,0.66914 c 0.703382,0.008 1.38608,0.27793 2.180262,0.75784 l -0.52175,1.57111 c -0.178513,-0.0139 -0.357377,-0.009 -0.534141,0.001 l -0.281745,-0.84394 c -0.03751,-0.11334 -0.132857,-0.1983 -0.249789,-0.22239 l -1.719817,-0.34044 c -0.250059,-0.0114 -0.417373,0.1971 -0.361962,0.41283 l 0.339786,1.35328 c 0.0238,0.0944 0.08768,0.17373 0.174788,0.21719 l 0.419356,0.20935 c -0.529788,0.81754 -0.936775,1.71485 -1.050672,2.66939 -0.148654,-0.38626 -0.319445,-0.76384 -0.494359,-1.13349 -0.397007,-0.83898 -0.700279,-1.62445 -0.571968,-2.36158 0.06823,-0.8733 0.583238,-1.62982 1.355244,-2.00938 0.464937,-0.19589 0.894738,-0.28572 1.316767,-0.28109 z m -0.712188,1.6859 0.982846,0.19761 0.27718,0.82829 c 0.05688,0.1697 0.237645,0.26492 0.409572,0.21522 0.249652,-0.0727 0.621596,-0.0202 1.023282,0.15456 0.48432,0.24224 0.909724,0.46071 1.240459,0.85632 -0.372855,0.27937 -0.616197,0.58547 -0.740882,0.91568 -0.08279,0.21924 -0.112563,0.43831 -0.112172,0.65349 -0.387885,-0.20218 -0.756829,-0.47644 -1.036327,-0.66327 -0.248978,-0.16562 -0.573668,0.0544 -0.511966,0.34696 0.433665,2.04167 0.518083,2.65226 0.07044,4.79552 -0.03106,0.14836 0.04124,0.29862 0.17674,0.36654 0.324387,0.16219 0.711948,0.45962 1.021328,0.80154 0.266968,0.34222 0.52759,0.71164 0.607186,1.09958 l -0.79306,0.19827 c -0.101899,-0.39097 -0.246873,-0.71542 -0.453272,-0.94111 -0.08343,-0.0907 -0.209975,-0.12796 -0.329352,-0.0972 -1.300291,0.33083 -2.626483,0.49677 -3.981603,0.4924 v -1.97091 c 0.646596,-0.42305 1.076106,-1.13022 1.076106,-1.93765 l -0.0014,-0.32349 h 0.283047 c 0.165194,0.001 0.306304,-0.11851 0.331966,-0.28174 l 0.206089,-1.3246 c 0.07805,-1.06703 0.454344,-2.07636 1.084589,-2.92375 0.122823,-0.16689 0.0654,-0.40441 -0.12001,-0.49696 l -0.538706,-0.26936 z m 4.372914,2.75615 c 0.109951,0.1518 0.201249,0.30121 0.259572,0.43696 0.129521,0.30149 0.11443,0.47608 0.01237,0.60132 -0.195574,0.18811 -0.382215,0.27052 -0.586318,0.28957 -0.0925,0.009 -0.190978,10e-4 -0.292179,-0.015 -0.03276,-0.24872 -0.02605,-0.46627 0.04956,-0.66655 0.07798,-0.20652 0.241019,-0.42027 0.556968,-0.64631 z m -12.9087395,2.42287 c 0.4221448,0.008 0.7867753,0.16378 1.0721965,0.43762 l 0.3332655,0.31892 c -0.1478431,0.10299 -0.2868272,0.21728 -0.4167454,0.3424 -0.4191396,-0.18788 -0.8247586,-0.18128 -1.1569821,-0.0574 -0.3857843,0.14386 -0.683594,0.3942 -0.9834974,0.59415 -0.2999034,0.19995 -0.585692,0.35125 -0.9411063,0.37695 -0.2201666,0.016 -0.5787833,-0.16931 -0.8934959,-0.28957 0.4477698,-0.23271 0.9064921,-0.41102 1.3004607,-0.89741 0.5254295,-0.57562 0.9691723,-0.88883 1.6859044,-0.82566 z m 6.7931815,0.80936 0.0027,0.3274 c -0.0014,0.92118 -0.796981,1.68004 -1.80982,1.68004 -1.01373,0 -1.809167,-0.76046 -1.809167,-1.68656 l -0.00651,-0.31304 c 1.190888,-0.0202 2.418908,-0.008 3.6229,-0.008 z m -4.2887828,0.13502 0.00334,0.18977 c 3.4e-6,0.72331 0.3463217,1.36595 0.8843667,1.79613 l 0.00718,1.82808 c -0.3261963,-0.0605 -0.6543126,-0.12928 -0.9841519,-0.20935 -0.1228223,-0.0306 -0.2524233,0.0113 -0.3345709,0.10765 l -1.026543,1.19872 -1.0343701,-0.40827 0.6834938,-2.59571 c 0.2421587,-0.92027 0.9333293,-1.62521 1.8013405,-1.90699 z m 1.557422,2.36939 c 0.2867798,0.11017 0.5984278,0.17218 0.9241508,0.17218 0.254706,0 0.50129,-0.0369 0.733708,-0.10564 v 1.64221 c -0.545304,-0.0244 -1.09536,-0.0791 -1.6506827,-0.15979 z m -1.5867701,1.91156 c 2.6860519,0.61825 5.2765039,0.59596 7.7675489,0.008 0.295516,0.3555 0.530205,0.81513 0.547184,1.74003 -3.364388,0.93285 -6.6470636,0.90462 -9.8871581,0.0854 z m 9.5780189,0.82501 c 0.02144,0.16186 0.03926,0.31617 0.05674,0.50545 -0.254476,0.0888 -0.54155,0.18047 -0.776754,0.25435 -0.01392,-0.19667 -0.03568,-0.38257 -0.06,-0.56414 z m -12.2050297,0.0476 0.7461005,0.29413 -0.3952242,0.4611 -0.5047933,-0.16957 z m 14.9553027,0.12782 c 0.252478,-0.0177 0.37342,0.12482 0.456533,0.34892 0.03637,0.24989 -0.154421,0.74089 -0.994588,1.13155 -5.986326,2.81904 -11.6989367,2.51814 -17.3286112,-0.0101 -0.7707565,-0.31207 -1.0066615,-0.68045 -0.9658899,-0.98219 0.040778,-0.30175 0.2615695,-0.54395 0.7682762,-0.41219 5.7222405,2.55656 11.6629869,2.86624 17.7877519,-0.0101 0.106265,-0.0385 0.198308,-0.0611 0.276528,-0.0665 z"
       sodipodi:nodetypes="sccscsccsccccssccccccccccsscccccsscccssscccccccccccsccsccscccsccccccccccccccccccccccscscsccccsssccccccsccccccccccccccscccccccccccccccccccscccsccscccccc" />
  </g>
</svg>
