<?xml version="1.0" encoding="UTF-8" standalone="no"?>
<svg
   xmlns:dc="http://purl.org/dc/elements/1.1/"
   xmlns:cc="http://creativecommons.org/ns#"
   xmlns:rdf="http://www.w3.org/1999/02/22-rdf-syntax-ns#"
   xmlns:svg="http://www.w3.org/2000/svg"
   xmlns="http://www.w3.org/2000/svg"
   xmlns:sodipodi="http://sodipodi.sourceforge.net/DTD/sodipodi-0.dtd"
   xmlns:inkscape="http://www.inkscape.org/namespaces/inkscape"
   inkscape:export-ydpi="768"
   inkscape:export-xdpi="768"
   inkscape:export-filename="C:\Users\RainBoyz\Desktop\EXP\FILEDLINE ICON\Meadow.png"
   sodipodi:docname="Meadow.svg"
   inkscape:version="1.0 (4035a4fb49, 2020-05-01)"
   id="svg979"
   version="1.1"
   viewBox="0 0 16.933334 16.933333"
   height="48pt"
   width="48pt">
  <defs
     id="defs973" />
  <sodipodi:namedview
     inkscape:snap-nodes="false"
     inkscape:bbox-nodes="true"
     inkscape:snap-bbox="true"
     inkscape:document-rotation="0"
     inkscape:window-maximized="1"
     inkscape:window-y="-8"
     inkscape:window-x="-8"
     inkscape:window-height="715"
     inkscape:window-width="1366"
     units="pt"
     showgrid="false"
     inkscape:current-layer="layer1"
     inkscape:document-units="pt"
     inkscape:cy="42.330438"
     inkscape:cx="65.960719"
     inkscape:zoom="4.1015625"
     inkscape:pageshadow="2"
     inkscape:pageopacity="0.0"
     borderopacity="1.0"
     bordercolor="#666666"
     pagecolor="#ffffff"
     id="base">
    <inkscape:grid
       id="grid1526"
       type="xygrid" />
    <sodipodi:guide
       inkscape:locked="false"
       id="guide1528"
       orientation="56.666615,0"
       position="0.97013909,15.963209" />
    <sodipodi:guide
       inkscape:locked="false"
       id="guide1530"
       orientation="0,56.666667"
       position="0.97013909,0.97016731" />
    <sodipodi:guide
       inkscape:locked="false"
       id="guide1532"
       orientation="-56.666615,0"
       position="15.963195,0.97016731" />
    <sodipodi:guide
       inkscape:locked="false"
       id="guide1534"
       orientation="0,-56.666667"
       position="15.963195,15.963209" />
  </sodipodi:namedview>
  <metadata
     id="metadata976">
    <rdf:RDF>
      <cc:Work
         rdf:about="">
        <dc:format>image/svg+xml</dc:format>
        <dc:type
           rdf:resource="http://purl.org/dc/dcmitype/StillImage" />
        <dc:title></dc:title>
      </cc:Work>
    </rdf:RDF>
  </metadata>
  <g
     transform="translate(0,-280.06668)"
     id="layer1"
     inkscape:groupmode="layer"
     inkscape:label="Layer 1">
    <path
       d="m 7.0212054,281.17394 c -0.8090211,0 -1.4706089,0.66158 -1.4706056,1.4706 6.6e-6,0.80901 0.6615877,1.47252 1.4706056,1.47252 0.8090151,0 1.4725123,-0.66351 1.4725197,-1.47252 2.5e-6,-0.80902 -0.6634984,-1.4706 -1.4725197,-1.4706 z M 3.25909,281.49975 c -0.8090213,0 -1.4699613,0.66413 -1.4699647,1.47316 3.4e-6,0.15971 0.048337,0.31233 0.099022,0.46315 -0.504489,0.43123 -0.91790116,0.98727 -0.91800908,1.66162 0,1.14966 0.85640918,2.10328 1.96314628,2.26277 v 1.16523 c -0.6038214,-0.0588 -1.1569936,-0.10916 -1.6565043,-0.15651 -0.1721153,0.0111 -0.30628867,0.15335 -0.30664198,0.32581 v 5.56043 c 0,0.89933 0.73544678,1.63734 1.63478258,1.63734 H 14.380612 c 0.899336,0 1.556845,-0.73801 1.556845,-1.63734 0.02329,-2.49254 0.04384,-4.98435 0,-7.47631 -0.07974,-0.28613 -0.249883,-0.76017 -0.627339,-1.09242 -0.335085,-0.29495 -0.825098,-0.41461 -1.432909,-0.30344 -0.438656,-0.63036 -1.124304,-0.94778 -1.751692,-0.92057 -0.33851,0.0147 -0.669628,0.13225 -0.910346,0.37883 -0.128688,0.13183 -0.222394,0.29991 -0.280449,0.48999 -0.150249,-0.0518 -0.310927,-0.0817 -0.47785,-0.0817 -0.234305,0 -0.4988672,0.0831 -0.6905823,0.28938 -0.1380197,0.14855 -0.2270786,0.34986 -0.2670347,0.58902 -0.5178957,0.1263 -0.7825074,0.41123 -0.8458219,0.93717 -0.00729,0.19711 0.042773,0.38701 0.1399074,0.55259 -0.2466679,0.0865 -0.494457,0.1809 -0.7448866,0.29003 -0.1661846,-0.30907 -0.4910623,-0.52132 -0.8630683,-0.52129 -0.3633159,2e-5 -0.6790901,0.20478 -0.848376,0.50213 -0.3319191,-0.0936 -0.7038831,-0.01 -0.9627281,0.24851 -0.1771458,0.17713 -0.2716177,0.40281 -0.2881159,0.63118 -0.4698573,-0.0696 -0.9633561,-0.12434 -1.4987121,-0.17824 v -1.23041 c 1.1061385,-0.16032 1.9631463,-1.11314 1.9631463,-2.26212 1.111e-4,-0.67457 -0.4127352,-1.23023 -0.917368,-1.66162 0.051025,-0.15114 0.098927,-0.30304 0.099018,-0.46315 0,-0.80903 -0.6641357,-1.47316 -1.4731602,-1.47316 z m 3.7621154,0.32836 c 0.4554817,0 0.8183535,0.36096 0.8183498,0.81643 -3.7e-6,0.45548 -0.3628743,0.81836 -0.8183498,0.81836 -0.4554786,0 -0.8164329,-0.36288 -0.8164361,-0.81836 0,-0.45547 0.3609543,-0.81643 0.8164361,-0.81643 z M 3.25909,282.15392 c 0.455485,0 0.8189906,0.3635 0.8189906,0.81899 -6.54e-5,0.11447 -0.023713,0.22572 -0.070271,0.33028 -0.066914,0.14852 -0.014359,0.32364 0.1232949,0.41076 0.475928,0.29972 0.7654176,0.8213 0.765326,1.38373 0,0.79461 -0.5603026,1.45299 -1.3089768,1.60412 v -0.43569 c -6.541e-4,-0.18065 -0.1477179,-0.32651 -0.3283635,-0.3258 -0.1796448,6.8e-4 -0.3251059,0.14616 -0.3258058,0.3258 v 0.43569 c -0.7491418,-0.15043 -1.308339,-0.80886 -1.308339,-1.60412 9.16e-5,-0.56224 0.2870071,-1.08412 0.7627714,-1.38373 0.1383502,-0.0865 0.191773,-0.26178 0.1252112,-0.41076 -0.046629,-0.10471 -0.069629,-0.21566 -0.069633,-0.33028 3.2e-6,-0.45549 0.3603132,-0.81899 0.815795,-0.81899 z m 8.895174,2.96037 c 0.410256,-0.0178 0.95353,0.22508 1.145434,0.57112 0.191905,0.34604 0.355227,0.42442 0.51107,0.38266 0.590552,-0.15824 0.860495,-0.0705 1.066859,0.11114 0.123128,0.10841 0.204967,0.36878 0.298975,0.58262 -0.823916,0.0485 -1.611602,0.0856 -2.350922,0.1348 -1.038032,0.0572 -2.12345,0.15856 -3.3443132,0.48997 -0.1462034,-0.0459 -0.1799128,-0.1506 -0.1737638,-0.29705 0.052923,-0.279 0.2206316,-0.34902 0.4695469,-0.33667 0.2061122,-0.005 0.3520671,-0.15155 0.3513601,-0.33219 -2.61e-4,-0.25958 0.06442,-0.37719 0.118183,-0.43505 0.05375,-0.0579 0.117392,-0.0817 0.210176,-0.0817 0.166874,0.0145 0.377734,0.0713 0.489989,0.16226 0.11225,0.0909 0.191917,0.11571 0.272786,0.11052 0.180809,-0.0111 0.318288,-0.16675 0.306641,-0.34753 -0.01723,-0.26999 0.0525,-0.42176 0.157151,-0.52895 0.104647,-0.10718 0.265695,-0.17701 0.470825,-0.18591 z m 3.208878,2.34006 v 3.49764 c -1.182582,-0.12582 -2.286794,-0.16628 -3.368587,-0.42547 0.09521,-0.15097 0.152683,-0.32796 0.152679,-0.5181 -2e-6,-0.43879 -0.297355,-0.81114 -0.698247,-0.93526 -0.06265,-0.22149 -0.20813,-0.39097 -0.369886,-0.5149 -0.173162,-0.13169 -0.371795,-0.19469 -0.569207,-0.18654 -0.290699,0 -0.5510683,0.13248 -0.7314683,0.3373 -0.2593923,-0.23122 -0.6505687,-0.25967 -0.9512287,-0.0888 -0.034627,-0.0601 -0.075768,-0.11546 -0.1200994,-0.16802 1.5093784,-0.58443 2.9830134,-0.78541 4.6769284,-0.91354 0.652825,-0.024 1.642663,-0.0507 1.979119,-0.0843 z m -8.1777564,0.58645 c 0.1737507,-5e-5 0.3102986,0.12999 0.3258058,0.29707 v 10e-4 0.001 c 0.021486,0.21602 0.1833051,0.31367 0.3104756,0.35775 0.101012,0.002 0.2228792,0.0318 0.2830067,0.076 0.1693184,0.11831 0.1847997,0.25213 0.2248707,0.43058 0.011126,0.20401 0.2044087,0.34809 0.3794669,0.2945 0.1750595,-0.0535 0.2352525,-0.14963 0.3187806,-0.24915 0.1819304,-0.16289 0.3986766,-0.11818 0.4574085,0.0748 0.098539,0.28411 0.1951543,0.34295 0.3737197,0.35775 0.2554739,-0.0548 0.3079579,-0.14966 0.3258059,-0.32837 0.01723,-0.18737 0.141017,-0.32837 0.32581,-0.32837 0.286071,0.0572 0.309419,0.23645 0.369886,0.48616 0.116527,0.15644 0.230952,0.15934 0.432491,0.25043 0.201541,0.0911 0.18029,0.21056 0.114351,0.43696 -0.154056,0.15578 -0.274141,0.2086 -0.566647,0.17823 -0.782174,-0.16973 -1.5263153,-0.41839 -2.252541,-0.68036 -1.0820264,-0.40575 -1.9503676,-0.6434 -2.8204686,-0.80876 -0.021097,-0.0942 -0.032545,-0.20384 0.051107,-0.28748 0.1200561,-0.12004 0.3013922,-0.12777 0.4075803,-0.0364 0.1061844,0.0914 0.1937748,0.12993 0.285558,0.13032 0.1806456,6.6e-4 0.3276604,-0.14517 0.3283636,-0.3258 0,-0.18452 0.1408427,-0.32831 0.325168,-0.32837 z m -5.5604404,1.01895 c 2.3899786,0.18066 4.6604799,0.47474 6.753152,1.25084 2.3836398,0.90369 4.5878738,1.08382 6.9850448,1.30131 v 2.64351 c 0,0.54579 -0.436734,0.98317 -0.98253,0.98317 H 2.6049205 c -0.5457932,0 -0.9799753,-0.43738 -0.9799753,-0.98317 z"
       style="color:#717171;font-style:normal;font-variant:normal;font-weight:normal;font-stretch:normal;font-size:medium;line-height:normal;font-family:sans-serif;font-variant-ligatures:normal;font-variant-position:normal;font-variant-caps:normal;font-variant-numeric:normal;font-variant-alternates:normal;font-variant-east-asian:normal;font-feature-settings:normal;font-variation-settings:normal;text-indent:0;text-align:start;text-decoration:none;text-decoration-line:none;text-decoration-style:solid;text-decoration-color:#717171;letter-spacing:normal;word-spacing:normal;text-transform:none;writing-mode:lr-tb;direction:ltr;text-orientation:mixed;dominant-baseline:auto;baseline-shift:baseline;text-anchor:start;white-space:normal;shape-padding:0;shape-margin:0;inline-size:0;clip-rule:nonzero;display:inline;overflow:visible;visibility:visible;opacity:1;isolation:auto;mix-blend-mode:normal;color-interpolation:sRGB;color-interpolation-filters:linearRGB;solid-color:#717171;solid-opacity:1;vector-effect:none;fill:#717171;fill-opacity:1;fill-rule:nonzero;stroke:none;stroke-width:0.65417;stroke-linecap:round;stroke-linejoin:round;stroke-miterlimit:4;stroke-dasharray:none;stroke-dashoffset:0;stroke-opacity:1;color-rendering:auto;image-rendering:auto;shape-rendering:auto;text-rendering:auto;enable-background:accumulate;stop-color:#717171;stop-opacity:1"
       id="path1745" />
  </g>
</svg>
