<?xml version="1.0" encoding="UTF-8" standalone="no"?>
<!-- Created with Inkscape (http://www.inkscape.org/) -->

<svg
   width="64pt"
   height="64pt"
   viewBox="0 0 22.577778 22.577778"
   version="1.1"
   id="svg831"
   inkscape:version="1.1.2 (0a00cf5339, 2022-02-04)"
   sodipodi:docname="1 - Living Room.svg"
   inkscape:export-filename="/media/taufikramadhan/Data/Tr Design Studio/Project Design/TR Creative Design/Icon Design/Project Hiring/Icon Icons/024 - Real Estate And Building/5 - Send/1 - Living Room.png"
   inkscape:export-xdpi="576"
   inkscape:export-ydpi="576"
   xmlns:inkscape="http://www.inkscape.org/namespaces/inkscape"
   xmlns:sodipodi="http://sodipodi.sourceforge.net/DTD/sodipodi-0.dtd"
   xmlns="http://www.w3.org/2000/svg"
   xmlns:svg="http://www.w3.org/2000/svg"
   xmlns:rdf="http://www.w3.org/1999/02/22-rdf-syntax-ns#"
   xmlns:cc="http://creativecommons.org/ns#"
   xmlns:dc="http://purl.org/dc/elements/1.1/">
  <defs
     id="defs825">
    <pattern
       id="EMFhbasepattern"
       patternUnits="userSpaceOnUse"
       width="6"
       height="6"
       x="0"
       y="0" />
    <pattern
       id="EMFhbasepattern-9"
       patternUnits="userSpaceOnUse"
       width="6"
       height="6"
       x="0"
       y="0" />
    <pattern
       id="EMFhbasepattern-0"
       patternUnits="userSpaceOnUse"
       width="6"
       height="6"
       x="0"
       y="0" />
    <pattern
       id="EMFhbasepattern-7"
       patternUnits="userSpaceOnUse"
       width="6"
       height="6"
       x="0"
       y="0" />
    <pattern
       id="EMFhbasepattern-2"
       patternUnits="userSpaceOnUse"
       width="6"
       height="6"
       x="0"
       y="0" />
    <pattern
       id="EMFhbasepattern-98"
       patternUnits="userSpaceOnUse"
       width="6"
       height="6"
       x="0"
       y="0" />
    <pattern
       id="EMFhbasepattern-6"
       patternUnits="userSpaceOnUse"
       width="6"
       height="6"
       x="0"
       y="0" />
    <pattern
       id="EMFhbasepattern-01"
       patternUnits="userSpaceOnUse"
       width="6"
       height="6"
       x="0"
       y="0" />
    <pattern
       id="EMFhbasepattern-07"
       patternUnits="userSpaceOnUse"
       width="6"
       height="6"
       x="0"
       y="0" />
    <pattern
       id="EMFhbasepattern-8"
       patternUnits="userSpaceOnUse"
       width="6"
       height="6"
       x="0"
       y="0" />
    <pattern
       id="EMFhbasepattern-4"
       patternUnits="userSpaceOnUse"
       width="6"
       height="6"
       x="0"
       y="0" />
    <pattern
       id="EMFhbasepattern-40"
       patternUnits="userSpaceOnUse"
       width="6"
       height="6"
       x="0"
       y="0" />
    <pattern
       id="EMFhbasepattern-08"
       patternUnits="userSpaceOnUse"
       width="6"
       height="6"
       x="0"
       y="0" />
    <pattern
       id="EMFhbasepattern-04"
       patternUnits="userSpaceOnUse"
       width="6"
       height="6"
       x="0"
       y="0" />
    <pattern
       id="EMFhbasepattern-014"
       patternUnits="userSpaceOnUse"
       width="6"
       height="6"
       x="0"
       y="0" />
    <pattern
       id="EMFhbasepattern-27"
       patternUnits="userSpaceOnUse"
       width="6"
       height="6"
       x="0"
       y="0" />
    <pattern
       id="EMFhbasepattern-09"
       patternUnits="userSpaceOnUse"
       width="6"
       height="6"
       x="0"
       y="0" />
    <pattern
       id="EMFhbasepattern-5"
       patternUnits="userSpaceOnUse"
       width="6"
       height="6"
       x="0"
       y="0" />
    <pattern
       id="EMFhbasepattern-018"
       patternUnits="userSpaceOnUse"
       width="6"
       height="6"
       x="0"
       y="0" />
  </defs>
  <sodipodi:namedview
     id="base"
     pagecolor="#ffffff"
     bordercolor="#666666"
     borderopacity="1.0"
     inkscape:pageopacity="0.0"
     inkscape:pageshadow="2"
     inkscape:zoom="4.7574662"
     inkscape:cx="-23.121552"
     inkscape:cy="42.564675"
     inkscape:document-units="pt"
     inkscape:current-layer="layer1"
     showgrid="false"
     units="pt"
     inkscape:window-width="996"
     inkscape:window-height="713"
     inkscape:window-x="362"
     inkscape:window-y="26"
     inkscape:window-maximized="0"
     inkscape:pagecheckerboard="true"
     inkscape:showpageshadow="false"
     inkscape:object-paths="true"
     inkscape:snap-intersection-paths="true"
     inkscape:snap-smooth-nodes="true"
     inkscape:snap-midpoints="true"
     showguides="true"
     inkscape:snap-bbox="true"
     inkscape:bbox-nodes="true"
     inkscape:snap-nodes="false"
     inkscape:snap-global="true"
     inkscape:snap-others="false">
    <inkscape:grid
       type="xygrid"
       id="grid1378" />
    <sodipodi:guide
       position="0.97013831,21.607643"
       orientation="78.000048,0"
       id="guide1380"
       inkscape:locked="false" />
    <sodipodi:guide
       position="0.97013831,0.97013129"
       orientation="0,78.000005"
       id="guide1382"
       inkscape:locked="false" />
    <sodipodi:guide
       position="21.607639,0.97013129"
       orientation="-78.000048,0"
       id="guide1384"
       inkscape:locked="false" />
    <sodipodi:guide
       position="21.607639,21.607643"
       orientation="0,-78.000005"
       id="guide1386"
       inkscape:locked="false" />
  </sodipodi:namedview>
  <metadata
     id="metadata828">
    <rdf:RDF>
      <cc:Work
         rdf:about="">
        <dc:format>image/svg+xml</dc:format>
        <dc:type
           rdf:resource="http://purl.org/dc/dcmitype/StillImage" />
      </cc:Work>
    </rdf:RDF>
  </metadata>
  <g
     inkscape:label="Icon"
     inkscape:groupmode="layer"
     id="layer1"
     transform="translate(0,-274.42223)">
    <path
       id="rect12856"
       style="color:#000000;display:inline;fill:#000000;stroke-width:1;stroke-linecap:round;stroke-linejoin:round;stroke-miterlimit:1.5;-inkscape-stroke:none"
       d="m 8.9607994,278.72068 c -0.1848511,-6.7e-4 -0.3348853,0.14931 -0.334163,0.33415 -0.1828215,6.7e-4 -0.330851,0.14874 -0.3315626,0.33157 -7.323e-4,0.18384 0.1477278,0.33345 0.3315626,0.33416 7.323e-4,0.18384 0.1503266,0.33228 0.334163,0.33157 0.1828216,-6.7e-4 0.330851,-0.14875 0.3315627,-0.33157 h 0.334813 v 4.65878 h -0.044858 c -0.7095627,0 -1.1695592,0.3713 -1.440022,0.70409 -0.2697683,-0.33284 -0.7296586,-0.70409 -1.4393717,-0.70409 H 3.3203355 c -0.054683,-0.0793 -0.1265787,-0.14877 -0.2099897,-0.19439 -0.1933978,-0.1058 -0.4184675,-0.13718 -0.7274873,-0.13718 -0.3090196,0 -0.5360398,0.0315 -0.7294377,0.13718 -0.1933978,0.10581 -0.3244113,0.33935 -0.3244113,0.52855 v 2.98212 c -0.2511249,0.2101 -0.34972619,0.48702 -0.3244112,0.71579 l 0.2951557,2.66355 c 0.040301,0.36418 0.3617111,0.62671 0.7222864,0.62671 h 0.026655 v 0.33417 H 1.3043043 c -0.1838351,-6.7e-4 -0.33344561,0.14772 -0.33416309,0.33156 -7.2401e-4,0.18485 0.14931059,0.33489 0.33416309,0.33416 H 21.276073 c 0.183837,-6.6e-4 0.332283,-0.15033 0.331563,-0.33416 -7.14e-4,-0.18282 -0.148743,-0.33085 -0.331563,-0.33156 h -0.997288 v -12.31528 h 0.331563 c 6.98e-4,0.18282 0.148741,0.33086 0.331563,0.33157 0.183836,6.6e-4 0.333447,-0.14773 0.334162,-0.33157 0.183836,-6.6e-4 0.332281,-0.15032 0.331563,-0.33416 -6.99e-4,-0.18283 -0.148741,-0.33085 -0.331563,-0.33157 7.32e-4,-0.18484 -0.149312,-0.33488 -0.334162,-0.33415 -0.183836,6.6e-4 -0.332281,0.15032 -0.331563,0.33415 H 9.2923621 C 9.2930944,278.871 9.1446343,278.7214 8.9607994,278.72068 Z m -4.2414004,0.60981 c -0.02342,2.7e-4 -0.046947,10e-4 -0.070863,0.003 -0.3826618,0.0101 -0.8375778,0.0243 -1.1695707,0.35627 -0.058285,0.0582 -0.1060347,0.12053 -0.1462777,0.18528 -0.2580638,-0.15385 -0.5513202,-0.15619 -0.8022514,-0.16317 -0.3119132,-0.009 -0.5773089,0.024 -0.5773089,0.024 -0.1517726,0.0186 -0.2713644,0.13817 -0.2899548,0.28994 0,0 -0.033379,0.26606 -0.024705,0.57797 0.00868,0.31191 0.0083,0.68833 0.3023071,0.98234 0.030504,0.0306 0.062143,0.0581 0.094268,0.0825 v 6.7e-4 c -0.042347,0.11184 -0.055223,0.24 -0.013002,0.36666 l 0.2268929,0.68068 H 1.9706814 c -0.1840885,-9.9e-4 -0.3340964,0.14748 -0.3348131,0.33156 -7.257e-4,0.18511 0.1497068,0.33525 0.3348131,0.33417 h 6.3243938 c 0.1838361,-6.7e-4 0.3322826,-0.15033 0.3315626,-0.33417 -6.99e-4,-0.18282 -0.1487425,-0.33084 -0.3315626,-0.33156 v -0.66572 c 4.7e-6,-0.36373 -0.3019929,-0.66573 -0.6657257,-0.66573 H 6.6288094 c -0.3637325,0 -0.6657303,0.302 -0.6657257,0.66573 v 0.66572 H 4.6621882 l 0.2275427,-0.68068 c 0.027431,-0.0796 0.023343,-0.16554 0.00326,-0.24054 0.1547449,-0.051 0.3026295,-0.13167 0.4316815,-0.26069 0.331992,-0.33199 0.3456258,-0.78951 0.3562674,-1.17218 0.010643,-0.38267 -0.032507,-0.70733 -0.032507,-0.70733 -0.01859,-0.15178 -0.138182,-0.27137 -0.2899545,-0.28996 0,0 -0.2877919,-0.0379 -0.6390707,-0.0338 z m 5.573501,0.39007 h 2.329391 v 1.3295 c 0,0 -0.0016,1.03882 -0.263301,2.25789 -0.03876,0.17982 0.07564,0.35667 0.255498,0.39527 0.179829,0.0387 0.357329,-0.0757 0.395926,-0.2555 0.277907,-1.29479 0.277602,-2.39766 0.277602,-2.39766 h 1.332101 v 2.33134 c 6.33e-4,0.18294 0.148623,0.33159 0.331563,0.33222 0.183898,6.7e-4 0.333529,-0.14831 0.334163,-0.33222 v -2.33134 h 1.32885 c 0,0 0.0011,1.04612 0.2581,2.29689 0.207544,1.01004 0.574999,2.17393 1.291143,3.05037 -0.126393,0.0468 -0.216648,0.16866 -0.217141,0.31141 -7.33e-4,0.18486 0.1493,0.3349 0.334163,0.33417 h 0.02015 c -0.102708,0.17102 -0.215404,0.38025 -0.325061,0.62867 -0.350904,0.79494 -0.694982,2.00983 -0.694982,3.69854 v 0.66573 h -3.044523 v -0.33417 h 0.02666 c 0.360357,0 0.686595,-0.26164 0.722937,-0.63127 l 0.294505,-2.65899 v -6.7e-4 -6.7e-4 -6.6e-4 -6.7e-4 -6.7e-4 -6.6e-4 -6.7e-4 -6.7e-4 c 0.02195,-0.22324 -0.07574,-0.49804 -0.324411,-0.70797 v -2.98472 c -2e-6,-0.1892 -0.131015,-0.4228 -0.324412,-0.52855 -0.193397,-0.1058 -0.420419,-0.13717 -0.729437,-0.13717 -0.309019,0 -0.53669,0.0315 -0.730088,0.13717 -0.08341,0.0457 -0.154527,0.11511 -0.208689,0.19439 H 10.2929 Z m 2.995116,0 h 3.326677 v 0.66573 h -3.326677 z m 3.993054,0 h 2.331989 v 6.65661 h -0.547402 c -0.836255,-0.72895 -1.307211,-2.02293 -1.541442,-3.16285 -0.242288,-1.17915 -0.243145,-2.16426 -0.243145,-2.16426 z m -12.280818,0.29255 c 0.048038,0.35132 -0.020904,0.68244 -0.1449767,1.04865 -0.3590859,0.15263 -0.6997123,0.16393 -1.0395464,0.14888 -0.027399,-0.36768 0.00842,-0.69669 0.132625,-1.0532 0.3803204,-0.16546 0.6860403,-0.16621 1.0518981,-0.14433 z m -1.8723556,1.20275 c -0.2338697,0.0328 -0.4827097,-0.0332 -0.7151329,-0.10203 -0.00989,-0.0101 -0.1008552,-0.27448 -0.1079205,-0.52855 -0.00297,-0.10681 0.00262,-0.11901 0.00715,-0.20089 0.078813,-0.006 0.1271084,-0.008 0.2015381,-0.008 0.2540636,0.008 0.518012,0.0981 0.5278997,0.10795 0.00707,0.008 0.055452,0.14594 0.085166,0.31725 z m 1.0980597,0.70146 -0.2652501,0.79835 H 2.9510651 l -0.270451,-0.81331 z m 2.4028533,0.13264 h 1.0005387 v 0.66571 H 6.6288094 Z m -4.253048,2.66565 c 0.2434454,-0.003 0.3569252,0.0352 0.3932693,0.0518 v 2.63885 c -0.1171295,-0.0205 -0.2457373,-0.0318 -0.3861729,-0.0318 -0.1412591,0 -0.270256,0.0113 -0.3881232,0.0318 v -2.63885 c 0.034024,-0.0155 0.1375814,-0.0498 0.3810268,-0.0518 z m 11.4837126,-0.003 c 0.01375,-2.8e-4 0.02822,0 0.04291,0 0.236427,0 0.35183,0.0375 0.388123,0.054 v 2.63949 c -0.117704,-0.0207 -0.24684,-0.0324 -0.388123,-0.0324 -0.14017,0 -0.268571,0.0113 -0.385522,0.0318 v -2.63886 c 0.03492,-0.0156 0.1364,-0.0498 0.342615,-0.054 z m 2.126551,0.5162 -0.334163,0.66573 c -0.08259,0.16478 -0.01556,0.3653 0.149528,0.44728 0.164952,0.0825 0.365543,0.0151 0.447285,-0.15018 l 0.332213,-0.66573 c 0.08287,-0.16425 0.01677,-0.36459 -0.147579,-0.44728 -0.180536,-0.10429 -0.366227,0.0101 -0.447284,0.15018 z M 3.4347564,285.04466 h 3.2681668 c 0.7423857,0 1.0341926,0.55954 1.105859,0.72944 v 3.02697 C 7.4770507,288.56683 6.9937403,288.37394 6.3414549,288.37394 H 3.7637185 c 0.010216,-0.21791 -0.090189,-0.4777 -0.3289621,-0.67807 z m 6.1475605,0 h 3.2681661 v 2.65121 c -0.238349,0.20017 -0.338346,0.46037 -0.328312,0.67807 H 9.9437849 c -0.6522852,0 -1.1369482,0.19289 -1.4692772,0.42713 v -3.02762 c 0.072667,-0.17066 0.3663506,-0.72879 1.1078092,-0.72879 z m -3.6153327,0.99794 c -0.070524,0.004 -0.1381451,0.0291 -0.1930864,0.0735 l -0.1521286,0.12216 -0.1521287,-0.12216 c -0.143319,-0.11474 -0.3524415,-0.0917 -0.4674383,0.0513 -0.1158777,0.1438 -0.092538,0.35445 0.05201,0.4694 l 0.035106,0.0279 -0.035106,0.0286 c -0.1428695,0.11474 -0.1661168,0.3234 -0.05201,0.46679 0.1148022,0.14329 0.3239478,0.16656 0.4674383,0.052 l 0.1521287,-0.12153 0.1521286,0.12153 c 0.1437994,0.11587 0.3544453,0.0926 0.4693888,-0.052 0.1136573,-0.14389 0.089529,-0.35262 -0.053961,-0.46679 l -0.035106,-0.0286 0.035106,-0.0279 c 0.1451669,-0.11436 0.1693905,-0.32509 0.053961,-0.4694 -0.066705,-0.0835 -0.1694987,-0.13001 -0.2763024,-0.1248 z m 4.3317678,0 c -0.01108,1.1e-4 -0.02215,6.7e-4 -0.03316,0.003 -0.08791,0.0101 -0.168377,0.0538 -0.223642,0.12291 -0.1158773,0.14379 -0.092538,0.35445 0.05201,0.46938 l 0.03511,0.0279 -0.03511,0.0286 c -0.1428692,0.11473 -0.1661167,0.3234 -0.05201,0.46678 0.115138,0.14435 0.325761,0.16738 0.469389,0.0513 l 0.151478,-0.1209 0.150829,0.1209 c 0.143628,0.11599 0.35425,0.093 0.469389,-0.0513 0.114258,-0.14321 0.0913,-0.35184 -0.05136,-0.46678 l -0.03511,-0.0286 0.03511,-0.0279 c 0.144342,-0.11511 0.167388,-0.32576 0.05136,-0.46938 -0.05527,-0.0691 -0.135733,-0.11323 -0.223643,-0.12291 -0.08817,-0.0101 -0.176635,0.0159 -0.245746,0.0714 l -0.150829,0.1209 -0.151478,-0.1209 c -0.06019,-0.0484 -0.135349,-0.0743 -0.212591,-0.0735 z m 6.654655,6.7e-4 c -0.03728,-6.7e-4 -0.07441,0.005 -0.109867,0.0162 -0.08352,0.0282 -0.152496,0.0882 -0.191785,0.16709 l -0.665726,1.33263 c -0.08243,0.1641 -0.01639,0.36396 0.147578,0.44664 0.164779,0.0827 0.365305,0.0156 0.447285,-0.14952 l 0.665724,-1.32951 c 0.0825,-0.16495 0.01515,-0.36555 -0.150178,-0.44728 -0.04441,-0.0225 -0.09327,-0.0347 -0.143027,-0.0357 z m 2.146705,0.99924 h 0.512947 v 4.99294 h -1.666264 v -0.66573 c 0,-1.59885 0.324248,-2.71489 0.639071,-3.4281 0.210303,-0.47643 0.406706,-0.76162 0.514246,-0.89911 z m -16.2966248,3.96305 c -5.758e-4,0.006 -0.014299,0.0299 -0.061762,0.0299 h -0.719686 c -0.04723,0 -0.060557,-0.0237 -0.061762,-0.0345 l -0.2938555,-2.65444 c -3.9e-6,6.6e-4 -1.67e-5,-0.003 0,-0.003 9.753e-4,-0.0283 0.03234,-0.30492 0.7164352,-0.30492 v 5e-5 c 0.6600482,0 0.7125862,0.25233 0.7151351,0.29971 z m 10.3837438,-2.66368 c 6.67e-4,-0.0391 0.04079,-0.30232 0.715135,-0.30232 l 1.5e-5,1.3e-4 c 0.691983,0 0.717616,0.27851 0.717087,0.30621 l -0.294507,2.65966 c -5.65e-4,0.006 -0.0143,0.0299 -0.06176,0.0299 h -0.719685 c -0.04745,0 -0.06054,-0.0242 -0.06112,-0.0299 z m -9.4976265,0.69835 h 2.6518504 c 0.6431166,0 0.9979058,0.21063 1.2137793,0.41023 0.1506624,0.13929 0.2230633,0.26196 0.253548,0.32441 v 0.92838 H 3.50692 Z m 6.2541804,0 h 2.6499001 l 0.183984,1.66302 H 8.4745077 v -0.92838 c 0.030484,-0.0624 0.1022354,-0.18512 0.2528976,-0.32441 0.2158735,-0.1996 0.5732634,-0.41023 1.2163796,-0.41023 z m -6.5818422,2.32937 h 9.5620043 c 0.131724,0.20341 0.367566,0.33156 0.619568,0.33156 h 0.0273 v 0.33417 H 2.7150708 v -0.33417 h 0.026655 c 0.2520367,0 0.4885035,-0.12809 0.6202169,-0.33156 z"
       sodipodi:nodetypes="scscscccscsccscscccscccsccsccccscscsccsccsccccssccsccsccscsssscccccscccccccccscccccccsccccsscccscccccccccccccscccccccccccccscccccccccsccccccccccccccccccsccccsccsccccccccccccsccscccscccsccsccccccccccccccccccccccccccccsccccccccccscccccccssccccssccssccccccccccccsscccssccccsccccssccsccccsc" />
  </g>
</svg>
