<?xml version="1.0" ?><svg viewBox="0 0 64 64" xmlns="http://www.w3.org/2000/svg"><g id="a"/><g id="b"/><g id="c"/><g id="d"/><g id="e"/><g id="f"/><g id="g"/><g id="h"/><g id="i"/><g id="j"/><g id="k"><circle cx="13.1" cy="53.74" r="1"/><circle cx="22.26" cy="54.73" r="1"/><circle cx="31.59" cy="52.59" r="1"/><circle cx="40.01" cy="55.73" r="1"/><circle cx="50.52" cy="53.12" r="1"/><path d="M28.91,28.48c.85,.85,1.97,1.28,3.09,1.28s2.24-.43,3.09-1.28h0c.82-.83,1.28-1.92,1.28-3.09s-.47-2.28-1.28-3.09c-.81-.81-1.94-1.28-3.09-1.28s-2.27,.47-3.09,1.28-1.28,1.94-1.28,3.09,.45,2.26,1.28,3.09Zm1.41-4.76c.44-.44,1.05-.69,1.67-.69s1.23,.25,1.67,.69c.44,.44,.69,1.05,.69,1.67s-.25,1.23-.69,1.67c-.92,.92-2.42,.92-3.34,0-.45-.45-.69-1.04-.69-1.67s.25-1.23,.69-1.67Z"/><path fill="#717171" d="M21.4,26.33h3.3c.55,0,1-.45,1-1s-.45-1-1-1h-3.3c-.55,0-1,.45-1,1s.45,1,1,1Z"/><path fill="#717171" d="M37.73,26.83c0,.55,.45,1,1,1h4.43c.55,0,1-.45,1-1s-.45-1-1-1h-4.43c-.55,0-1,.45-1,1Z"/><path fill="#717171" d="M38.29,23.75h2.23c.55,0,1-.45,1-1s-.45-1-1-1h-2.23c-.55,0-1,.45-1,1s.45,1,1,1Z"/><path fill="#717171" d="M26.29,20.73h.9c.55,0,1-.45,1-1s-.45-1-1-1h-.9c-.55,0-1,.45-1,1s.45,1,1,1Z"/><path fill="#717171" d="M60,21.69c0-10.03-3.37-17.59-7.83-17.59-2.89,0-5.39,3.22-6.76,8.54-.29-.22-.6-.41-.96-.52l-11.53-3.65c-.61-.19-1.25-.19-1.86,0l-11.53,3.65c-.35,.11-.67,.3-.96,.52-1.37-5.32-3.87-8.54-6.76-8.54-4.46,0-7.83,7.56-7.83,17.59,0,4.9,.88,9.54,2.4,12.81v6.88c-1.31,.3-2.3,1.42-2.3,2.82v12.74c0,1.63,1.33,2.95,2.95,2.95H56.94c1.63,0,2.95-1.33,2.95-2.95v-12.74c0-1.4-1-2.52-2.3-2.82v-6.87c1.52-3.28,2.4-7.92,2.4-12.82Zm-6.54,19.56v-8.59c0-.6,.47-1.07,1.07-1.07s1.07,.48,1.07,1.07v8.59h-2.14Zm-4.87,0v-1.46h2.87v1.46h-2.87Zm-4.14,0v-8.59c0-.59,.48-1.07,1.07-1.07s1.07,.48,1.07,1.07v8.59h-2.14Zm-4.87,0v-1.46h2.87v1.46h-2.87Zm-4.14,0v-8.59c0-.59,.48-1.07,1.07-1.07s1.07,.47,1.07,1.07v8.59h-2.14Zm-4.87,0v-1.46h2.87v1.46h-2.87Zm-4.14,0v-8.59c0-.6,.47-1.07,1.07-1.07s1.07,.48,1.07,1.07v8.59h-2.14Zm-4.87,0v-1.46h2.87v1.46h-2.87Zm-4.14,0v-8.59c0-.6,.47-1.07,1.07-1.07s1.07,.48,1.07,1.07v8.59h-2.14Zm-4.87,0v-1.46h2.87v1.46h-2.87Zm-4.14,0v-8.59c0-.59,.48-1.07,1.07-1.07s1.07,.48,1.07,1.07v8.59h-2.14Zm12.5-20.52h2.36c.55,0,1-.45,1-1s-.45-1-1-1h-1.28l.6-1.1,9.41-2.98,9.41,2.98,2.24,4.12h-.28c-.55,0-1,.45-1,1s.45,1,1,1h1.36l.74,1.36v4.48c-1.67,.03-3.02,1.38-3.02,3.06v1.04h-2.87v-1.04c0-1.69-1.38-3.07-3.07-3.07s-3.07,1.38-3.07,3.07v1.04h-2.87v-1.04c0-1.69-1.38-3.07-3.07-3.07h-4.4c-.55,0-1,.45-1,1s.45,1,1,1h1.54c-.13,.34-.22,.69-.22,1.07v1.04h-2.87v-1.04c0-1.68-1.35-3.03-3.02-3.06v-4.48l2.38-4.38Zm30.55,17.06h-2.87v-2.1h2.87v2.1Zm-11.88-2.1h2.87v2.1h-2.87v-2.1Zm-9.01,0h2.87v2.1h-2.87v-2.1Zm-9.01,0h2.87v2.1h-2.87v-2.1Zm-6.14,2.1h-2.87v-2.1h2.87v2.1ZM52.17,6.1c2.76,0,5.83,6.4,5.83,15.59,0,3.27-.43,6.38-1.16,9.01-.56-.67-1.37-1.11-2.31-1.11-.38,0-.73,.09-1.07,.22v-4.99l2.88-1.96c.46-.31,.58-.93,.27-1.39-.31-.46-.93-.58-1.39-.27l-1.76,1.2v-3.17c0-.55-.45-1-1-1s-1,.45-1,1v14.47h-2.87v-1.04c0-.94-.45-1.75-1.12-2.31v-3.51c.27,.08,.55,.12,.84,.12,.5,0,1-.12,1.46-.37,1.49-.81,2.05-2.69,1.24-4.18l-4.05-7.47c.99-5.21,3.11-8.83,5.21-8.83ZM20.15,14.03l11.53-3.65h0c.21-.07,.44-.07,.65,0l11.53,3.65c.27,.08,.49,.27,.63,.52l4.77,8.8c.28,.52,.08,1.19-.44,1.47-.51,.28-1.19,.08-1.47-.43l-4.37-8.06c-.12-.23-.33-.4-.58-.48l-10.1-3.2c-.1-.03-.2-.05-.3-.05s-.2,.02-.3,.05l-10.1,3.2c-.25,.08-.45,.25-.58,.48l-4.37,8.06c-.28,.52-.96,.71-1.47,.44-.52-.28-.72-.95-.44-1.47l4.77-8.8c.13-.25,.36-.43,.63-.52ZM11.83,6.1c2.1,0,4.22,3.62,5.21,8.82l-4.05,7.47c-.81,1.49-.25,3.37,1.24,4.18,.73,.4,1.56,.46,2.3,.25v3.52c-.67,.56-1.12,1.37-1.12,2.31v1.04h-2.87v-14.47c0-.55-.45-1-1-1s-1,.45-1,1v3.17l-1.76-1.2c-.46-.31-1.08-.19-1.39,.27s-.19,1.08,.27,1.39l2.89,1.96v4.99c-.34-.13-.69-.22-1.07-.22-.94,0-1.75,.45-2.31,1.11-.73-2.63-1.16-5.73-1.16-9.01,0-9.19,3.07-15.59,5.83-15.59ZM57.9,56.94c0,.54-.42,.95-.95,.95H7.06c-.53,0-.95-.43-.95-.95v-6.11c0-.53,.43-.95,.95-.95H56.94c.53,0,.95,.42,.95,.95v6.11Zm0-12.74v3.87c-.3-.1-.62-.19-.95-.19H7.06c-.34,0-.65,.09-.95,.19v-3.87c0-.53,.43-.95,.95-.95H56.94c.53,0,.95,.43,.95,.95Z"/></g><g id="l"/><g id="m"/><g id="n"/><g id="o"/><g id="p"/><g id="q"/><g id="r"/><g id="s"/><g id="t"/><g id="u"/><g id="v"/><g id="w"/><g id="x"/><g id="y"/><g id="a`"/><g id="aa"/><g id="ab"/><g id="ac"/><g id="ad"/><g id="ae"/><g id="af"/><g id="ag"/><g id="ah"/><g id="ai"/><g id="aj"/><g id="ak"/><g id="al"/><g id="am"/><g id="an"/><g id="ao"/><g id="ap"/><g id="aq"/><g id="ar"/><g id="as"/><g id="at"/><g id="au"/><g id="av"/><g id="aw"/><g id="ax"/></svg>